<svg xmlns="http://www.w3.org/2000/svg"  viewBox="0 0 50 50" width="50px" height="50px"><path d="M 13.5 5 C 11.027344 5 9 7.027344 9 9.5 C 9 10.113281 9.128906 10.699219 9.351563 11.234375 C 9.292969 11.285156 9.238281 11.347656 9.191406 11.410156 C 9.191406 11.410156 1 22.515625 1 34 C 1 35.183594 1.121094 36.214844 1.335938 37.105469 C 1.347656 37.238281 1.382813 37.367188 1.445313 37.484375 C 1.800781 38.726563 2.347656 39.6875 3.035156 40.386719 C 4.261719 41.636719 5.804688 42 7 42 C 7 42 8.207031 42.015625 9.445313 41.394531 C 10.6875 40.773438 12 39.332031 12 37 C 12 35.726563 11.457031 34.6875 10.746094 34.019531 C 10.03125 33.355469 9.199219 33 8.367188 33 C 7.535156 33 6.804688 33.347656 6.183594 33.84375 C 5.5625 34.34375 5 35.042969 5 36 C 4.996094 36.359375 5.183594 36.695313 5.496094 36.878906 C 5.808594 37.058594 6.191406 37.058594 6.503906 36.878906 C 6.816406 36.695313 7.003906 36.359375 7 36 C 7 35.957031 7.121094 35.65625 7.4375 35.40625 C 7.75 35.152344 8.199219 35 8.367188 35 C 8.535156 35 9.019531 35.144531 9.375 35.480469 C 9.730469 35.8125 10 36.273438 10 37 C 10 38.667969 9.3125 39.226563 8.554688 39.605469 C 7.792969 39.984375 7 40 7 40 C 6.195313 40 5.238281 39.78125 4.464844 38.988281 C 4.046875 38.558594 3.65625 37.925781 3.382813 37.011719 C 3.484375 36.636719 4.546875 32.863281 6.375 28.371094 C 8.097656 24.128906 10.535156 19.476563 12.980469 17.191406 C 13.367188 17.664063 13.84375 18.058594 14.386719 18.359375 C 14.570313 18.84375 14.847656 19.289063 15.179688 19.671875 L 15.921875 26.339844 L 8.648438 29.0625 C 8.300781 29.195313 8.054688 29.507813 8.007813 29.878906 C 7.964844 30.246094 8.125 30.609375 8.429688 30.824219 L 14.59375 35.089844 C 14.191406 35.265625 13.953125 35.6875 14.007813 36.125 L 15.007813 44.125 C 15.046875 44.4375 15.230469 44.710938 15.503906 44.867188 C 15.777344 45.023438 16.105469 45.042969 16.394531 44.921875 L 22.457031 42.324219 C 23.035156 42.742188 23.738281 43 24.5 43 C 25.261719 43 25.964844 42.742188 26.542969 42.324219 L 32.605469 44.921875 C 32.894531 45.042969 33.222656 45.023438 33.496094 44.867188 C 33.769531 44.710938 33.953125 44.4375 33.992188 44.125 L 34.992188 36.125 C 35.046875 35.6875 34.808594 35.265625 34.40625 35.089844 L 40.566406 30.824219 C 40.875 30.609375 41.035156 30.246094 40.992188 29.878906 C 40.945313 29.507813 40.699219 29.195313 40.351563 29.0625 L 33.078125 26.339844 L 33.820313 19.671875 C 34.152344 19.289063 34.429688 18.84375 34.613281 18.359375 C 35.15625 18.058594 35.632813 17.664063 36.019531 17.191406 C 38.464844 19.476563 40.902344 24.128906 42.625 28.371094 C 44.453125 32.863281 45.515625 36.636719 45.621094 37.011719 C 45.34375 37.925781 44.953125 38.558594 44.535156 38.988281 C 43.761719 39.78125 42.804688 40 42 40 C 42 40 41.207031 39.984375 40.449219 39.605469 C 39.6875 39.226563 39 38.667969 39 37 C 39 36.273438 39.269531 35.8125 39.625 35.480469 C 39.980469 35.144531 40.464844 35 40.632813 35 C 40.800781 35 41.25 35.152344 41.5625 35.40625 C 41.878906 35.65625 42 35.957031 42 36 C 41.996094 36.359375 42.183594 36.695313 42.496094 36.878906 C 42.808594 37.058594 43.191406 37.058594 43.503906 36.878906 C 43.816406 36.695313 44.003906 36.359375 44 36 C 44 35.042969 43.4375 34.34375 42.816406 33.84375 C 42.195313 33.347656 41.464844 33 40.632813 33 C 39.800781 33 38.96875 33.355469 38.253906 34.019531 C 37.542969 34.6875 37 35.726563 37 37 C 37 39.332031 38.3125 40.773438 39.550781 41.394531 C 40.792969 42.015625 42 42 42 42 C 43.195313 42 44.738281 41.636719 45.964844 40.386719 C 46.652344 39.6875 47.199219 38.726563 47.558594 37.480469 C 47.617188 37.363281 47.652344 37.238281 47.660156 37.109375 C 47.878906 36.214844 48 35.183594 48 34 C 48 22.515625 39.808594 11.410156 39.808594 11.410156 C 39.761719 11.347656 39.707031 11.285156 39.644531 11.234375 C 39.871094 10.699219 40 10.113281 40 9.5 C 40 7.027344 37.972656 5 35.5 5 C 33.691406 5 32.125 6.082031 31.414063 7.628906 C 30.695313 7.230469 29.871094 7 29 7 C 27.3125 7 25.601563 7.761719 24.5 9.046875 C 23.398438 7.761719 21.6875 7 20 7 C 19.128906 7 18.304688 7.230469 17.585938 7.628906 C 16.875 6.082031 15.308594 5 13.5 5 Z M 13.5 7 C 14.773438 7 15.761719 7.953125 15.921875 9.171875 C 15.726563 9.507813 15.578125 9.878906 15.4375 10.25 C 15.175781 10.316406 14.933594 10.40625 14.699219 10.515625 C 14.003906 10.808594 13.386719 11.234375 12.929688 11.808594 C 11.847656 11.542969 11 10.671875 11 9.5 C 11 8.113281 12.113281 7 13.5 7 Z M 35.5 7 C 36.886719 7 38 8.113281 38 9.5 C 38 10.671875 37.152344 11.542969 36.070313 11.808594 C 35.613281 11.234375 34.996094 10.808594 34.300781 10.515625 C 34.066406 10.40625 33.824219 10.316406 33.5625 10.25 C 33.421875 9.878906 33.273438 9.507813 33.078125 9.171875 C 33.238281 7.953125 34.226563 7 35.5 7 Z M 20 9 C 21.410156 9 23.171875 10.136719 23.546875 11.304688 C 23.683594 11.714844 24.066406 11.996094 24.5 11.996094 C 24.933594 11.996094 25.316406 11.714844 25.453125 11.304688 C 25.828125 10.136719 27.589844 9 29 9 C 29.902344 9 30.703125 9.394531 31.25 10.015625 C 31.25 10.019531 31.253906 10.023438 31.253906 10.027344 C 31.566406 10.382813 31.789063 10.796875 31.898438 11.253906 C 31.996094 11.65625 32.328125 11.957031 32.738281 12.011719 C 32.746094 12.011719 32.757813 12.011719 32.765625 12.015625 C 33.644531 12.105469 34.386719 12.660156 34.75 13.421875 C 34.75 13.425781 34.753906 13.433594 34.753906 13.4375 C 34.914063 13.757813 35 14.109375 35 14.5 C 35 14.746094 34.960938 14.984375 34.894531 15.207031 C 34.847656 15.292969 34.8125 15.386719 34.792969 15.484375 C 34.542969 16.058594 34.089844 16.523438 33.515625 16.773438 C 33.230469 16.898438 33.015625 17.15625 32.945313 17.464844 C 32.738281 18.347656 31.960938 19 31 19 C 30.84375 19 30.6875 18.980469 30.511719 18.941406 C 30.316406 18.902344 30.117188 18.917969 29.933594 18.992188 C 29.957031 18.828125 30 18.664063 30 18.5 C 30 17.382813 29.46875 16.386719 28.660156 15.746094 C 28.660156 15.746094 28.660156 15.746094 28.65625 15.746094 C 28.066406 15.277344 27.308594 15 26.5 15 C 25.609375 15 24.96875 15.324219 24.5 15.65625 C 24.03125 15.324219 23.390625 15 22.5 15 C 21.691406 15 20.933594 15.277344 20.34375 15.746094 C 20.339844 15.746094 20.339844 15.746094 20.339844 15.746094 C 19.53125 16.386719 19 17.382813 19 18.5 C 19 18.691406 19.039063 18.828125 19.066406 18.988281 C 18.882813 18.917969 18.679688 18.902344 18.488281 18.941406 C 18.3125 18.980469 18.15625 19 18 19 C 17.039063 19 16.261719 18.347656 16.054688 17.464844 C 15.984375 17.15625 15.769531 16.898438 15.484375 16.773438 C 14.910156 16.523438 14.457031 16.058594 14.207031 15.484375 C 14.1875 15.386719 14.152344 15.292969 14.105469 15.207031 C 14.039063 14.984375 14 14.746094 14 14.5 C 14 14.109375 14.085938 13.757813 14.246094 13.4375 C 14.246094 13.433594 14.25 13.425781 14.25 13.421875 C 14.613281 12.660156 15.355469 12.105469 16.234375 12.015625 C 16.65625 11.96875 17 11.667969 17.101563 11.253906 C 17.210938 10.796875 17.433594 10.382813 17.746094 10.027344 C 17.746094 10.023438 17.75 10.023438 17.75 10.019531 C 18.296875 9.394531 19.097656 9 20 9 Z M 10.59375 12.902344 C 11.023438 13.273438 11.527344 13.554688 12.074219 13.742188 C 12.027344 13.992188 12 14.242188 12 14.5 C 12 14.777344 12.035156 15.046875 12.089844 15.308594 C 8.855469 17.941406 6.382813 23.039063 4.523438 27.617188 C 4.035156 28.816406 3.59375 29.976563 3.210938 31.050781 C 4.304688 22.390625 9.636719 14.292969 10.59375 12.902344 Z M 38.40625 12.902344 C 39.363281 14.292969 44.695313 22.390625 45.789063 31.050781 C 45.40625 29.976563 44.964844 28.816406 44.480469 27.617188 C 42.617188 23.039063 40.144531 17.941406 36.910156 15.308594 C 36.964844 15.046875 37 14.777344 37 14.5 C 37 14.242188 36.972656 13.992188 36.925781 13.742188 C 37.476563 13.558594 37.976563 13.273438 38.40625 12.902344 Z M 22.5 17 C 23.027344 17 23.277344 17.152344 23.4375 17.28125 C 23.597656 17.410156 23.605469 17.449219 23.605469 17.449219 C 23.773438 17.785156 24.121094 18 24.5 18 C 24.878906 18 25.226563 17.785156 25.394531 17.449219 C 25.394531 17.449219 25.402344 17.410156 25.5625 17.28125 C 25.722656 17.152344 25.972656 17 26.5 17 C 26.847656 17 27.171875 17.121094 27.417969 17.3125 C 27.773438 17.59375 28 18.015625 28 18.5 C 28 18.628906 27.984375 18.757813 27.949219 18.875 C 27.945313 18.882813 27.945313 18.886719 27.941406 18.894531 C 27.8125 19.386719 27.425781 19.785156 26.9375 19.933594 C 26.515625 20.0625 26.226563 20.453125 26.230469 20.894531 C 26.234375 21.335938 26.523438 21.726563 26.949219 21.847656 C 27.277344 21.945313 27.632813 22 28 22 C 29 22 29.867188 21.5625 30.566406 20.953125 C 30.710938 20.96875 30.847656 21 31 21 C 31.230469 21 31.449219 20.976563 31.667969 20.9375 L 31.039063 26.582031 C 30.15625 27.828125 28.457031 29.246094 26.933594 30.300781 C 25.613281 31.214844 24.839844 31.632813 24.5 31.824219 C 24.160156 31.632813 23.386719 31.214844 22.066406 30.300781 C 20.542969 29.246094 18.84375 27.828125 17.960938 26.582031 L 17.332031 20.9375 C 17.550781 20.976563 17.769531 21 18 21 C 18.152344 21 18.289063 20.96875 18.433594 20.953125 C 19.132813 21.5625 20 22 21 22 C 21.367188 22 21.722656 21.945313 22.050781 21.847656 C 22.476563 21.726563 22.765625 21.335938 22.769531 20.894531 C 22.773438 20.453125 22.484375 20.0625 22.0625 19.933594 C 21.578125 19.785156 21.195313 19.390625 21.058594 18.890625 C 21.027344 18.757813 21 18.585938 21 18.5 C 21 18.015625 21.226563 17.59375 21.582031 17.3125 C 21.828125 17.121094 22.152344 17 22.5 17 Z M 20.21875 22 C 19.527344 22.023438 18.761719 22.160156 18 22.515625 L 19 23 C 19 23 18.972656 23.65625 19.027344 24.359375 C 19.089844 24.15625 19.273438 24 19.5 24 C 19.777344 24 20 24.222656 20 24.5 C 20 24.777344 19.777344 25 19.5 25 C 19.308594 25 19.152344 24.890625 19.066406 24.734375 C 19.136719 25.296875 19.273438 25.824219 19.53125 26 L 22.355469 26 C 22.355469 26 22.867188 25.757813 22.980469 23.46875 C 23.007813 22.867188 22.597656 22.335938 22.011719 22.191406 C 21.53125 22.078125 20.910156 21.980469 20.21875 22 Z M 28.78125 22 C 28.089844 21.980469 27.46875 22.078125 26.988281 22.191406 C 26.402344 22.332031 25.992188 22.867188 26.019531 23.46875 C 26.132813 25.753906 26.644531 26 26.644531 26 L 29.46875 26 C 29.726563 25.824219 29.863281 25.296875 29.933594 24.734375 C 29.847656 24.890625 29.691406 25 29.5 25 C 29.222656 25 29 24.777344 29 24.5 C 29 24.222656 29.222656 24 29.5 24 C 29.726563 24 29.910156 24.15625 29.972656 24.359375 C 30.027344 23.65625 30 23 30 23 L 31 22.515625 C 30.238281 22.160156 29.472656 22.023438 28.78125 22 Z M 21 23 C 21.449219 23 21.8125 23.546875 21.8125 24.226563 C 21.8125 24.902344 21.449219 25.453125 21 25.453125 C 20.550781 25.453125 20.1875 24.90625 20.1875 24.226563 C 20.1875 23.550781 20.550781 23 21 23 Z M 28 23 C 28.449219 23 28.8125 23.546875 28.8125 24.226563 C 28.8125 24.902344 28.449219 25.453125 28 25.453125 C 27.550781 25.453125 27.1875 24.90625 27.1875 24.226563 C 27.1875 23.550781 27.550781 23 28 23 Z M 23.480469 27 C 23.121094 27 22.894531 27.375 23.050781 27.691406 L 24.070313 29.734375 C 24.246094 30.085938 24.75 30.085938 24.925781 29.734375 L 25.949219 27.691406 C 26.105469 27.375 25.875 27 25.519531 27 Z M 16.539063 28.238281 L 21.164063 36.722656 L 19.972656 36.382813 L 11.140625 30.265625 Z M 32.460938 28.238281 L 37.859375 30.265625 L 29.027344 36.382813 L 27.835938 36.722656 Z M 20.773438 31.832031 C 20.824219 31.871094 20.878906 31.910156 20.933594 31.949219 C 22.601563 33.105469 24.019531 33.875 24.019531 33.875 C 24.320313 34.039063 24.679688 34.039063 24.980469 33.875 C 24.980469 33.875 26.398438 33.105469 28.066406 31.949219 C 28.121094 31.910156 28.175781 31.871094 28.226563 31.832031 L 25.8125 36.261719 C 25.40625 36.09375 24.964844 36 24.5 36 C 24.035156 36 23.59375 36.09375 23.1875 36.261719 Z M 16.179688 37.375 L 21.078125 38.777344 C 21.03125 39.011719 21 39.25 21 39.5 C 21 39.914063 21.085938 40.304688 21.21875 40.671875 L 16.828125 42.558594 Z M 32.820313 37.375 L 32.171875 42.558594 L 27.78125 40.671875 C 27.914063 40.304688 28 39.914063 28 39.5 C 28 39.25 27.96875 39.011719 27.921875 38.777344 Z M 24.5 38 C 25.339844 38 26 38.660156 26 39.5 C 26 40.339844 25.339844 41 24.5 41 C 23.660156 41 23 40.339844 23 39.5 C 23 38.660156 23.660156 38 24.5 38 Z"/></svg>